# xmcd CD database file
#
# Track frame offsets:
#	150
#	19050
#	33360
#	45235
#	57965
#	83838
#	98635
#	132320
#	158528
#
# Disc length: 2427 seconds
#
# Revision: 3
# Processed by: cddbd v1.5.2PL0 Copyright (c) Steve Scherf et al.
# Submitted via: CDex 2.14
#
DISCID=5f097909
DTITLE=AC-DC - Dirty Deeds Done Dirt Cheap
DYEAR=1976
DGENRE=Hard Rock
TTITLE0=Dirty Deeds Done Dirt Cheap
TTITLE1=Love At First Feel
TTITLE2=Big Balls
TTITLE3=Rocker
TTITLE4=Problem Child
TTITLE5=There's Gonna Be Some Rockin'
TTITLE6=Ain't No Fun (Waiting Round To Be A Millionaire)
TTITLE7=Ride On
TTITLE8=Squealer
EXTD=YEAR: 1976
EXTT0=
EXTT1=
EXTT2=
EXTT3=
EXTT4=
EXTT5=
EXTT6=
EXTT7=
EXTT8=
PLAYORDER=
